<svg xmlns="http://www.w3.org/2000/svg" viewBox="0 0 237.76 145.75"><defs><style>.cls-1{fill:#e3e3e3;}.cls-2{fill:#afc410;}.cls-3{fill:none;stroke:#e3e3e3;stroke-linecap:round;stroke-linejoin:round;stroke-width:0.68px;}</style></defs><g id="Слой_2" data-name="Слой 2"><g id="Слой_1-2" data-name="Слой 1"><path class="cls-1" d="M127.37,133.42v.75h4.31v11.44h.88V134.17h4.28v-.75Zm-10.48,12.19h.8a.24.24,0,0,0,.18-.07.66.66,0,0,0,.14-.15l3.77-5.36a.64.64,0,0,0,.12-.25l3.84,5.61a.79.79,0,0,0,.12.15.24.24,0,0,0,.19.07h.87l-4.39-6.3,4.21-5.89h-.84a.2.2,0,0,0-.15.06l-.11.13-3.57,5.06-.08.13,0,.14-3.7-5.34a.63.63,0,0,0-.1-.12.24.24,0,0,0-.18-.06h-.87l4.2,5.94Zm-1.23-11.1a4.08,4.08,0,0,0-1.37-.92,4.65,4.65,0,0,0-1.71-.3,3.93,3.93,0,0,0-1.5.26,3.29,3.29,0,0,0-1.11.7,2.82,2.82,0,0,0-.68,1,3,3,0,0,0-.23,1.18,2.79,2.79,0,0,0,.26,1.3,2.59,2.59,0,0,0,.69.87,3.84,3.84,0,0,0,1,.58c.37.15.74.28,1.13.4l1.12.37a4.45,4.45,0,0,1,1,.47,2.34,2.34,0,0,1,.7.7,2,2,0,0,1,.26,1.06,3,3,0,0,1-.21,1.12,2.73,2.73,0,0,1-.6.9,2.9,2.9,0,0,1-1,.6,3.71,3.71,0,0,1-1.29.22,3.79,3.79,0,0,1-.94-.11,4.27,4.27,0,0,1-.74-.25,3.31,3.31,0,0,1-.56-.33c-.16-.12-.3-.23-.41-.33l-.29-.25a.34.34,0,0,0-.2-.1.3.3,0,0,0-.24.13l-.24.37a4.66,4.66,0,0,0,1.52,1.17,4.6,4.6,0,0,0,2.08.43,4.46,4.46,0,0,0,1.65-.29,3.57,3.57,0,0,0,1.22-.79,3.29,3.29,0,0,0,.76-1.17,3.93,3.93,0,0,0,.27-1.45,2.63,2.63,0,0,0-.27-1.25A2.49,2.49,0,0,0,115,140a3.94,3.94,0,0,0-1-.57c-.36-.15-.74-.29-1.13-.42l-1.12-.38a4.47,4.47,0,0,1-1-.48,2.27,2.27,0,0,1-.69-.69,1.8,1.8,0,0,1-.27-1,2.34,2.34,0,0,1,.18-.91,2.29,2.29,0,0,1,.52-.76,2.47,2.47,0,0,1,.85-.51,3.19,3.19,0,0,1,1.17-.19,3.26,3.26,0,0,1,1.11.16,3.61,3.61,0,0,1,.76.36,5.09,5.09,0,0,1,.48.35.47.47,0,0,0,.29.16.24.24,0,0,0,.22-.14Zm-11.45-1.09h-.78a.34.34,0,0,0-.2.06.48.48,0,0,0-.12.16l-3.48,5.6c-.08.13-.15.26-.21.38s-.11.25-.16.37a2.87,2.87,0,0,0-.15-.37c-.06-.12-.13-.25-.21-.38l-3.48-5.6a.78.78,0,0,0-.15-.16.29.29,0,0,0-.19-.06h-.77l4.51,7.16v5h.88v-5Zm-18.46.7h2.62a3.8,3.8,0,0,1,2.41.63,2.28,2.28,0,0,1,.78,1.87,2.43,2.43,0,0,1-.18.92,2.11,2.11,0,0,1-.57.8,2.67,2.67,0,0,1-1,.57,4.36,4.36,0,0,1-1.44.22H85.75Zm3.06,5.65a5.19,5.19,0,0,1,1.37.17,3,3,0,0,1,1,.5,2.17,2.17,0,0,1,.63.78,2.36,2.36,0,0,1,.22,1,2.4,2.4,0,0,1-.82,2,3.67,3.67,0,0,1-2.43.69h-3v-5.13Zm0,5.84a6.16,6.16,0,0,0,1.74-.23,3.57,3.57,0,0,0,1.29-.66,2.68,2.68,0,0,0,.8-1.05,3.29,3.29,0,0,0,.28-1.39,2.59,2.59,0,0,0-.78-2,3.93,3.93,0,0,0-2.21-.95,3.56,3.56,0,0,0,1-.43,3.17,3.17,0,0,0,.78-.66,2.72,2.72,0,0,0,.66-1.76,3.17,3.17,0,0,0-.25-1.3,2.46,2.46,0,0,0-.74-1,3.53,3.53,0,0,0-1.26-.61,6.87,6.87,0,0,0-1.81-.21h-3.5v12.19Z"/><path class="cls-1" d="M232.44,61.77h.49c.58,0,1-.2,1-.68s-.3-.7-1-.7a3.13,3.13,0,0,0-.58,0Zm0,2.62h-1V59.77a8.6,8.6,0,0,1,1.74-.14,2.74,2.74,0,0,1,1.57.34,1.27,1.27,0,0,1,.44,1,1.17,1.17,0,0,1-.93,1.07v.06a1.32,1.32,0,0,1,.82,1.12,3.56,3.56,0,0,0,.34,1.16H234.2a4.35,4.35,0,0,1-.36-1.13c-.08-.51-.35-.73-.93-.73h-.5ZM229.62,62a3.55,3.55,0,0,0,3.53,3.69,3.7,3.7,0,0,0,0-7.39,3.57,3.57,0,0,0-3.51,3.7m8.14,0a4.65,4.65,0,1,1-4.63-4.62A4.59,4.59,0,0,1,237.76,62"/><path class="cls-1" d="M143.72,59.27a1.86,1.86,0,0,0-2-1.93H118.07a1.93,1.93,0,1,0,0,3.86h5.63c2.58,0,4.06,1.63,4.06,4.47v44.48c0,1.42.74,2.23,2,2.23h.28c1.29,0,2-.81,2-2.23V65.67c0-2.84,1.47-4.47,4.06-4.47h5.53a1.85,1.85,0,0,0,2-1.93"/><path class="cls-1" d="M173.83,84.85A1.78,1.78,0,0,0,172,82.92h-8c-2.38,0-3.74-1.62-3.74-4.46V73.28c0-5.79,3.23-11.47,8.75-11.47h9.61c2.16,0,2.16-4.46,0-4.46H169c-7.65,0-12.75,7.51-12.75,15.93V96.45c0,8.42,5.1,15.93,12.75,15.93h9.61c2.16,0,2.16-4.46,0-4.46H169c-5.52,0-8.75-5.68-8.75-11.47V91.27c0-2.84,1.36-4.46,3.74-4.46h8a1.76,1.76,0,0,0,1.86-1.8v-.16"/><path class="cls-1" d="M100.35,97c0,5.58-3.39,11.06-9.17,11.06S82,102.59,82,97V72.72c0-5.58,3.39-11.07,9.18-11.07s9.17,5.49,9.17,11.07Zm4.19,0V72.72c0-8.13-5.35-15.38-13.36-15.38S77.82,64.59,77.82,72.72V97c0,8.13,5.34,15.37,13.36,15.37s13.36-7.24,13.36-15.37"/><path class="cls-1" d="M64.31,105.14a2.45,2.45,0,0,0-.62-3,1.84,1.84,0,0,0-2.75.69c-1.43,2.25-3.65,5.28-8.09,5.28-5.78,0-9.16-5.48-9.16-11.06V72.72c0-5.58,3.38-11.07,9.16-11.07,4.44,0,6.58,3,7.91,5.29a1.82,1.82,0,0,0,2.75.59,2.46,2.46,0,0,0,.63-3,12.39,12.39,0,0,0-11.29-7.15c-8,0-13.34,7.25-13.34,15.38V97c0,8.13,5.34,15.37,13.34,15.37a12.51,12.51,0,0,0,11.46-7.24"/><path class="cls-1" d="M27,96.32c0-8.91-6.67-14.49-14.33-15.77,0,0-8.27-2-8.27-10,0-2.65,1.69-9,8.36-9a8.45,8.45,0,0,1,6,2.44c1.16,1,2.23,1,3,.2a2.22,2.22,0,0,0,0-3,12.67,12.67,0,0,0-9-3.82C4.58,57.34.39,64.59.39,70.57c0,7.05,4.1,13.12,12.37,14.2,0,0,10,2.25,10.06,11.55.09,4.7-3.47,11.75-10.06,11.75-4.09,0-7.38-2.93-9.34-5.87a1.72,1.72,0,0,0-2.67-.49,2.32,2.32,0,0,0-.36,3c2.14,3.82,6.5,7.64,12.37,7.64,8.37,0,14.24-8,14.24-16.06"/><path class="cls-1" d="M207.8,92.85c.82,0,1.64.79,2.28,2.18l7.07,15.17c.56,1.2,1.39,2.18,2.51,2.18,1.68,0,2.51-1.09,1.77-2.94l-9.21-21.51a7.33,7.33,0,0,1-.59-2.66v-.81a7.33,7.33,0,0,1,.59-2.66l9.21-21.51c.74-1.85-.09-2.95-1.77-2.95-1.12,0-1.95,1-2.51,2.19L210.08,74.7c-.64,1.39-1.46,2.15-2.28,2.18h-.1c-.82,0-1.64-.79-2.27-2.18l-7.08-15.17c-.55-1.2-1.39-2.19-2.51-2.19-1.67,0-2.51,1.1-1.77,2.95l9.22,21.51a7.55,7.55,0,0,1,.59,2.66v.81a7.55,7.55,0,0,1-.59,2.66l-9.22,21.51c-.74,1.85.1,2.94,1.77,2.94,1.12,0,2-1,2.51-2.18L205.43,95c.63-1.39,1.45-2.15,2.27-2.18h.1"/><path class="cls-2" d="M213.11,68.19l-3,6.51c-.64,1.39-1.46,2.15-2.28,2.18h-.1c-.82,0-1.64-.79-2.27-2.18l-3-6.51-2.94,4.65,3.84,9a7.65,7.65,0,0,1,.59,2.67v.81a7.55,7.55,0,0,1-.59,2.66l-3.84,8.95,2.94,4.65,3-6.5c.63-1.39,1.45-2.16,2.27-2.19h.1c.82,0,1.64.8,2.28,2.19l3,6.5,2.94-4.65-3.83-8.95a7.33,7.33,0,0,1-.59-2.66v-.81a7.43,7.43,0,0,1,.59-2.67l3.83-9"/><path class="cls-3" d="M116.05,4.34a16.82,16.82,0,1,0,9.88,23.46"/><path class="cls-3" d="M127.54,31.36A20,20,0,1,0,98,35.69"/><path class="cls-3" d="M99.45,12.79a13.68,13.68,0,1,0,19.91-3.15"/><path class="cls-1" d="M110.85,30.36a8.82,8.82,0,0,1-5.25-15.91h0a1.1,1.1,0,0,1,1.54.26,1.12,1.12,0,0,1-.25,1.55h0a6.61,6.61,0,0,0,4,11.89h0a6.61,6.61,0,0,0,4-11.89h0a1.12,1.12,0,0,1-.26-1.55,1.1,1.1,0,0,1,1.54-.26h0a8.82,8.82,0,0,1-5.26,15.91Z"/><path class="cls-1" d="M111.94,11.33a1.08,1.08,0,0,0-2.15,0v6.76a1.08,1.08,0,0,0,2.15,0Z"/></g></g></svg>